# Blender 3.4.1
# www.blender.org
o Cube
v -0.266313 -0.340726 0.266313
v -0.266313 4.264404 0.266313
v -0.266313 -0.340726 -0.266313
v -0.266313 4.264404 -0.266313
v 0.266313 -0.340726 0.266313
v 0.266313 4.264404 0.266313
v 0.266313 -0.340726 -0.266313
v 0.266313 4.264404 -0.266313
v 0.266313 2.120045 0.266313
v -0.266313 2.155844 0.266313
v -0.062065 3.448962 2.314205
v 0.062065 3.448962 2.314205
v 0.062065 2.949216 2.314205
v -0.062065 2.957559 2.314205
vn -1.0000 -0.0000 -0.0000
vn -0.0000 -0.0000 -1.0000
vn 1.0000 -0.0000 -0.0000
vn -0.0000 -0.0000 1.0000
vn -0.0000 -1.0000 -0.0000
vn -0.0000 1.0000 -0.0000
vn -0.0623 -0.9273 0.3692
vn -0.9951 -0.0000 0.0992
vn 0.9951 -0.0000 0.0992
vn -0.0000 0.9291 0.3699
vt 0.375000 0.000000
vt 0.375000 1.000000
vt 0.125000 0.750000
vt 0.625000 0.000000
vt 0.875000 0.750000
vt 0.125000 0.500000
vt 0.375000 0.250000
vt 0.625000 0.250000
vt 0.875000 0.500000
vt 0.375000 0.750000
vt 0.625000 0.750000
vt 0.375000 0.500000
vt 0.625000 0.500000
vt 0.508589 0.750000
vt 0.510532 1.000000
vt 0.510532 0.000000
vt 0.625000 1.000000
vt 0.625000 0.000000
vt 0.875000 0.750000
vt 0.625000 0.750000
vt 0.508589 0.750000
vt 0.510532 1.000000
vt 0.510532 0.000000
s 0
f 10/16/1 4/8/1 3/7/1
f 4/8/2 7/12/2 3/7/2
f 8/13/3 6/11/3 9/14/3
f 9/14/4 1/2/4 5/10/4
f 7/12/5 1/3/5 3/6/5
f 4/9/6 6/11/6 8/13/6
f 10/15/7 13/21/7 14/22/7
f 14/22/4 12/20/4 11/17/4
f 10/16/8 11/18/8 2/4/8
f 6/11/9 13/21/9 9/14/9
f 2/5/10 12/20/10 6/11/10
f 3/7/1 1/1/1 10/16/1
f 10/16/1 2/4/1 4/8/1
f 4/8/2 8/13/2 7/12/2
f 5/10/3 7/12/3 9/14/3
f 7/12/3 8/13/3 9/14/3
f 9/14/4 10/15/4 1/2/4
f 7/12/5 5/10/5 1/3/5
f 4/9/6 2/5/6 6/11/6
f 10/15/7 9/14/7 13/21/7
f 14/22/4 13/21/4 12/20/4
f 10/16/8 14/23/8 11/18/8
f 6/11/9 12/20/9 13/21/9
f 2/5/10 11/19/10 12/20/10
