# Blender 3.4.1
# www.blender.org
mtllib gameCompleteText.mtl
o Text
v 6.815001 0.000000 -0.543000
v 6.821001 0.000000 -0.436000
v 6.846001 0.000000 -0.264000
v 6.871001 0.000000 -0.201000
v 6.896000 0.000000 -0.264000
v 6.921000 0.000000 -0.436000
v 6.927001 0.000000 -0.543000
v 6.871001 0.000000 -0.691000
v 6.872001 0.000000 -0.111000
v 6.812001 0.000000 -0.051000
v 6.872001 0.000000 0.009000
v 6.932001 0.000000 -0.051000
v 6.695001 0.000000 -0.130000
v 6.538001 0.000000 -0.076000
v 6.387001 0.000000 -0.211000
v 6.703001 0.000000 -0.211000
v 6.508000 0.000000 -0.458000
v 6.298000 0.000000 -0.230000
v 6.516000 0.000000 0.009000
v 6.695001 0.000000 -0.044000
v 6.389000 0.000000 -0.270000
v 6.510000 0.000000 -0.381000
v 6.615000 0.000000 -0.270000
v 6.091000 0.000000 -0.542000
v 5.924000 0.000000 -0.379000
v 5.924000 0.000000 -0.369000
v 6.002000 0.000000 -0.369000
v 6.002000 0.000000 -0.132000
v 6.148000 0.000000 0.009000
v 6.256001 0.000000 -0.021000
v 6.256001 0.000000 -0.104000
v 6.155000 0.000000 -0.071000
v 6.091000 0.000000 -0.139000
v 6.091000 0.000000 -0.369000
v 6.233000 0.000000 -0.369000
v 6.233000 0.000000 -0.449000
v 6.091000 0.000000 -0.449000
v 5.883000 0.000000 -0.130000
v 5.726000 0.000000 -0.076000
v 5.575000 0.000000 -0.211000
v 5.891000 0.000000 -0.211000
v 5.696000 0.000000 -0.458000
v 5.486000 0.000000 -0.230000
v 5.704000 0.000000 0.009000
v 5.883000 0.000000 -0.044000
v 5.577000 0.000000 -0.270000
v 5.698000 0.000000 -0.381000
v 5.803000 0.000000 -0.270000
v 5.380000 0.000000 -0.682000
v 5.291000 0.000000 -0.682000
v 5.291000 0.000000 0.000000
v 5.380000 0.000000 0.000000
v 4.872000 0.000000 -0.011000
v 4.962000 0.000000 0.009000
v 5.190001 0.000000 -0.221000
v 4.937000 0.000000 -0.449000
v 4.783000 0.000000 -0.449000
v 4.783000 0.000000 0.230000
v 4.872000 0.000000 0.230000
v 4.872000 0.000000 -0.369000
v 4.953001 0.000000 -0.369000
v 5.099000 0.000000 -0.222000
v 4.956000 0.000000 -0.071000
v 4.872000 0.000000 -0.091000
v 4.014000 0.000000 -0.449000
v 4.014000 0.000000 0.000000
v 4.103000 0.000000 0.000000
v 4.103000 0.000000 -0.326000
v 4.215000 0.000000 -0.383000
v 4.296000 0.000000 -0.279000
v 4.296000 0.000000 0.000000
v 4.385000 0.000000 0.000000
v 4.385000 0.000000 -0.326000
v 4.485000 0.000000 -0.383000
v 4.578000 0.000000 -0.278000
v 4.578000 0.000000 0.000000
v 4.667000 0.000000 0.000000
v 4.667000 0.000000 -0.282000
v 4.518000 0.000000 -0.458000
v 4.368000 0.000000 -0.377000
v 4.234000 0.000000 -0.458000
v 4.103000 0.000000 -0.390000
v 4.103000 0.000000 -0.449000
v 3.676000 0.000000 -0.458000
v 3.439000 0.000000 -0.229000
v 3.676000 0.000000 0.009000
v 3.919000 0.000000 -0.229000
v 3.675000 0.000000 -0.378000
v 3.828000 0.000000 -0.228000
v 3.675000 0.000000 -0.071000
v 3.530000 0.000000 -0.229000
v 3.351000 0.000000 -0.635000
v 3.117000 0.000000 -0.691000
v 2.743000 0.000000 -0.331000
v 3.111000 0.000000 0.009000
v 3.358000 0.000000 -0.051000
v 3.358000 0.000000 -0.158000
v 3.120000 0.000000 -0.081000
v 2.844000 0.000000 -0.340000
v 3.116000 0.000000 -0.601000
v 3.351000 0.000000 -0.530000
v 2.376000 0.000000 -0.130000
v 2.219000 0.000000 -0.076000
v 2.068000 0.000000 -0.211000
v 2.384000 0.000000 -0.211000
v 2.189000 0.000000 -0.458000
v 1.979000 0.000000 -0.230000
v 2.197000 0.000000 0.009000
v 2.376000 0.000000 -0.044000
v 2.070000 0.000000 -0.270000
v 2.191000 0.000000 -0.381000
v 2.296000 0.000000 -0.270000
v 1.226000 0.000000 -0.449000
v 1.226000 0.000000 0.000000
v 1.315000 0.000000 0.000000
v 1.315000 0.000000 -0.326000
v 1.427000 0.000000 -0.383000
v 1.508000 0.000000 -0.279000
v 1.508000 0.000000 0.000000
v 1.597000 0.000000 0.000000
v 1.597000 0.000000 -0.326000
v 1.697000 0.000000 -0.383000
v 1.790000 0.000000 -0.278000
v 1.790000 0.000000 0.000000
v 1.879000 0.000000 0.000000
v 1.879000 0.000000 -0.282000
v 1.730000 0.000000 -0.458000
v 1.580000 0.000000 -0.377000
v 1.446000 0.000000 -0.458000
v 1.315000 0.000000 -0.390000
v 1.315000 0.000000 -0.449000
v 1.151000 0.000000 -0.080000
v 1.104000 0.000000 -0.056000
v 1.087000 0.000000 -0.079000
v 1.087000 0.000000 -0.310000
v 0.924000 0.000000 -0.458000
v 0.775000 0.000000 -0.397000
v 0.775000 0.000000 -0.300000
v 0.917000 0.000000 -0.374000
v 0.998000 0.000000 -0.295000
v 0.998000 0.000000 -0.271000
v 0.919000 0.000000 -0.243000
v 0.766000 0.000000 -0.101000
v 0.876000 0.000000 0.009000
v 0.997000 0.000000 -0.037000
v 1.065000 0.000000 0.009000
v 1.151000 0.000000 -0.026000
v 0.998000 0.000000 -0.091000
v 0.920000 0.000000 -0.054000
v 0.856000 0.000000 -0.117000
v 0.998000 0.000000 -0.222000
v 0.673000 0.000000 -0.336000
v 0.444000 0.000000 -0.336000
v 0.444000 0.000000 -0.248000
v 0.575000 0.000000 -0.248000
v 0.575000 0.000000 -0.108000
v 0.427000 0.000000 -0.081000
v 0.151000 0.000000 -0.340000
v 0.414000 0.000000 -0.601000
v 0.659000 0.000000 -0.534000
v 0.659000 0.000000 -0.633000
v 0.416000 0.000000 -0.691000
v 0.050000 0.000000 -0.337000
v 0.413000 0.000000 0.009000
v 0.673000 0.000000 -0.047000
vn -0.0000 1.0000 -0.0000
vt 0.000000 0.000000
vt 0.090909 0.000000
vt 0.181818 0.000000
vt 0.272727 0.000000
vt 0.363636 0.000000
vt 0.454545 0.000000
vt 0.545455 0.000000
vt 0.636364 0.000000
vt 0.727273 0.000000
vt 0.818182 0.000000
vt 0.909091 0.000000
vt 1.000000 0.000000
vt 0.000000 0.000000
vt 0.100000 0.000000
vt 0.200000 0.000000
vt 0.300000 0.000000
vt 0.400000 0.000000
vt 0.500000 0.000000
vt 0.600000 0.000000
vt 0.700000 0.000000
vt 0.800000 0.000000
vt 0.900000 0.000000
vt 1.000000 0.000000
vt 0.000000 0.000000
vt 0.076923 0.000000
vt 0.153846 0.000000
vt 0.230769 0.000000
vt 0.307692 0.000000
vt 0.384615 0.000000
vt 0.461538 0.000000
vt 0.538462 0.000000
vt 0.615385 0.000000
vt 0.692308 0.000000
vt 0.769231 0.000000
vt 0.846154 0.000000
vt 0.923077 0.000000
vt 1.000000 0.000000
vt 0.000000 0.000000
vt 0.100000 0.000000
vt 0.200000 0.000000
vt 0.300000 0.000000
vt 0.400000 0.000000
vt 0.500000 0.000000
vt 0.600000 0.000000
vt 0.700000 0.000000
vt 0.800000 0.000000
vt 0.900000 0.000000
vt 1.000000 0.000000
vt 0.000000 0.000000
vt 0.333333 0.000000
vt 0.666667 0.000000
vt 1.000000 0.000000
vt 0.000000 0.000000
vt 0.090909 0.000000
vt 0.181818 0.000000
vt 0.272727 0.000000
vt 0.363636 0.000000
vt 0.454545 0.000000
vt 0.545455 0.000000
vt 0.636364 0.000000
vt 0.727273 0.000000
vt 0.818182 0.000000
vt 0.909091 0.000000
vt 1.000000 0.000000
vt 0.000000 0.000000
vt 0.055556 0.000000
vt 0.111111 0.000000
vt 0.166667 0.000000
vt 0.222222 0.000000
vt 0.277778 0.000000
vt 0.333333 0.000000
vt 0.388889 0.000000
vt 0.444444 0.000000
vt 0.500000 0.000000
vt 0.555556 0.000000
vt 0.611111 0.000000
vt 0.666667 0.000000
vt 0.722222 0.000000
vt 0.777778 0.000000
vt 0.833333 0.000000
vt 0.888889 0.000000
vt 0.944444 0.000000
vt 1.000000 0.000000
vt 0.000000 0.000000
vt 0.142857 0.000000
vt 0.285714 0.000000
vt 0.428571 0.000000
vt 0.571429 0.000000
vt 0.714286 0.000000
vt 0.857143 0.000000
vt 1.000000 0.000000
vt 0.000000 0.000000
vt 0.111111 0.000000
vt 0.222222 0.000000
vt 0.333333 0.000000
vt 0.444444 0.000000
vt 0.555556 0.000000
vt 0.666667 0.000000
vt 0.777778 0.000000
vt 0.888889 0.000000
vt 1.000000 0.000000
vt 0.000000 0.000000
vt 0.100000 0.000000
vt 0.200000 0.000000
vt 0.300000 0.000000
vt 0.400000 0.000000
vt 0.500000 0.000000
vt 0.600000 0.000000
vt 0.700000 0.000000
vt 0.800000 0.000000
vt 0.900000 0.000000
vt 1.000000 0.000000
vt 0.000000 0.000000
vt 0.055556 0.000000
vt 0.111111 0.000000
vt 0.166667 0.000000
vt 0.222222 0.000000
vt 0.277778 0.000000
vt 0.333333 0.000000
vt 0.388889 0.000000
vt 0.444444 0.000000
vt 0.500000 0.000000
vt 0.555556 0.000000
vt 0.611111 0.000000
vt 0.666667 0.000000
vt 0.722222 0.000000
vt 0.777778 0.000000
vt 0.833333 0.000000
vt 0.888889 0.000000
vt 0.944444 0.000000
vt 1.000000 0.000000
vt 0.000000 0.000000
vt 0.052632 0.000000
vt 0.105263 0.000000
vt 0.157895 0.000000
vt 0.210526 0.000000
vt 0.263158 0.000000
vt 0.315789 0.000000
vt 0.368421 0.000000
vt 0.421053 0.000000
vt 0.473684 0.000000
vt 0.526316 0.000000
vt 0.578947 0.000000
vt 0.631579 0.000000
vt 0.684211 0.000000
vt 0.736842 0.000000
vt 0.789474 0.000000
vt 0.842105 0.000000
vt 0.894737 0.000000
vt 0.947368 0.000000
vt 1.000000 0.000000
vt 0.000000 0.000000
vt 0.076923 0.000000
vt 0.153846 0.000000
vt 0.230769 0.000000
vt 0.307692 0.000000
vt 0.384615 0.000000
vt 0.461538 0.000000
vt 0.538462 0.000000
vt 0.615385 0.000000
vt 0.692308 0.000000
vt 0.769231 0.000000
vt 0.846154 0.000000
vt 0.923077 0.000000
vt 1.000000 0.000000
s 0
f 10/10/1 12/12/1 9/9/1
f 11/11/1 12/12/1 10/10/1
f 1/1/1 7/7/1 8/8/1
f 2/2/1 7/7/1 1/1/1
f 2/2/1 6/6/1 7/7/1
f 3/3/1 6/6/1 2/2/1
f 3/3/1 5/5/1 6/6/1
f 4/4/1 5/5/1 3/3/1
f 18/18/1 22/22/1 17/17/1
f 22/22/1 16/16/1 17/17/1
f 18/18/1 21/21/1 22/22/1
f 23/23/1 16/16/1 22/22/1
f 18/18/1 23/23/1 21/21/1
f 18/18/1 16/16/1 23/23/1
f 19/19/1 15/15/1 18/18/1
f 15/15/1 16/16/1 18/18/1
f 19/19/1 14/14/1 15/15/1
f 14/14/1 20/20/1 13/13/1
f 19/19/1 20/20/1 14/14/1
f 25/25/1 37/37/1 24/24/1
f 25/25/1 36/36/1 37/37/1
f 25/25/1 35/35/1 36/36/1
f 26/26/1 35/35/1 25/25/1
f 27/27/1 35/35/1 26/26/1
f 28/28/1 34/34/1 27/27/1
f 34/34/1 35/35/1 27/27/1
f 28/28/1 33/33/1 34/34/1
f 28/28/1 32/32/1 33/33/1
f 29/29/1 32/32/1 28/28/1
f 32/32/1 30/30/1 31/31/1
f 29/29/1 30/30/1 32/32/1
f 43/43/1 47/47/1 42/42/1
f 47/47/1 41/41/1 42/42/1
f 43/43/1 46/46/1 47/47/1
f 48/48/1 41/41/1 47/47/1
f 43/43/1 48/48/1 46/46/1
f 43/43/1 41/41/1 48/48/1
f 44/44/1 40/40/1 43/43/1
f 40/40/1 41/41/1 43/43/1
f 44/44/1 39/39/1 40/40/1
f 39/39/1 45/45/1 38/38/1
f 44/44/1 45/45/1 39/39/1
f 51/51/1 49/49/1 50/50/1
f 51/51/1 52/52/1 49/49/1
f 58/58/1 60/60/1 57/57/1
f 60/60/1 56/56/1 57/57/1
f 60/60/1 61/61/1 56/56/1
f 61/61/1 55/55/1 56/56/1
f 58/58/1 64/64/1 60/60/1
f 62/62/1 55/55/1 61/61/1
f 63/63/1 55/55/1 62/62/1
f 63/63/1 54/54/1 55/55/1
f 58/58/1 53/53/1 64/64/1
f 53/53/1 63/63/1 64/64/1
f 53/53/1 54/54/1 63/63/1
f 58/58/1 59/59/1 53/53/1
f 82/82/1 80/80/1 81/81/1
f 80/80/1 74/74/1 79/79/1
f 74/74/1 78/78/1 79/79/1
f 66/66/1 83/83/1 65/65/1
f 66/66/1 82/82/1 83/83/1
f 66/66/1 68/68/1 82/82/1
f 68/68/1 69/69/1 82/82/1
f 69/69/1 80/80/1 82/82/1
f 70/70/1 80/80/1 69/69/1
f 80/80/1 73/73/1 74/74/1
f 75/75/1 78/78/1 74/74/1
f 70/70/1 73/73/1 80/80/1
f 66/66/1 67/67/1 68/68/1
f 70/70/1 72/72/1 73/73/1
f 75/75/1 77/77/1 78/78/1
f 71/71/1 72/72/1 70/70/1
f 76/76/1 77/77/1 75/75/1
f 85/85/1 88/88/1 84/84/1
f 88/88/1 87/87/1 84/84/1
f 85/85/1 91/91/1 88/88/1
f 89/89/1 87/87/1 88/88/1
f 86/86/1 91/91/1 85/85/1
f 86/86/1 90/90/1 91/91/1
f 89/89/1 86/86/1 87/87/1
f 90/90/1 86/86/1 89/89/1
f 94/94/1 100/100/1 93/93/1
f 100/100/1 92/92/1 93/93/1
f 100/100/1 101/101/1 92/92/1
f 94/94/1 99/99/1 100/100/1
f 94/94/1 98/98/1 99/99/1
f 95/95/1 98/98/1 94/94/1
f 98/98/1 96/96/1 97/97/1
f 95/95/1 96/96/1 98/98/1
f 107/107/1 111/111/1 106/106/1
f 111/111/1 105/105/1 106/106/1
f 107/107/1 110/110/1 111/111/1
f 112/112/1 105/105/1 111/111/1
f 107/107/1 112/112/1 110/110/1
f 107/107/1 105/105/1 112/112/1
f 108/108/1 104/104/1 107/107/1
f 104/104/1 105/105/1 107/107/1
f 108/108/1 103/103/1 104/104/1
f 103/103/1 109/109/1 102/102/1
f 108/108/1 109/109/1 103/103/1
f 130/130/1 128/128/1 129/129/1
f 128/128/1 122/122/1 127/127/1
f 122/122/1 126/126/1 127/127/1
f 114/114/1 131/131/1 113/113/1
f 114/114/1 130/130/1 131/131/1
f 114/114/1 116/116/1 130/130/1
f 116/116/1 117/117/1 130/130/1
f 117/117/1 128/128/1 130/130/1
f 118/118/1 128/128/1 117/117/1
f 128/128/1 121/121/1 122/122/1
f 123/123/1 126/126/1 122/122/1
f 118/118/1 121/121/1 128/128/1
f 114/114/1 115/115/1 116/116/1
f 118/118/1 120/120/1 121/121/1
f 123/123/1 125/125/1 126/126/1
f 119/119/1 120/120/1 118/118/1
f 124/124/1 125/125/1 123/123/1
f 137/137/1 139/139/1 136/136/1
f 139/139/1 135/135/1 136/136/1
f 138/138/1 139/139/1 137/137/1
f 140/140/1 135/135/1 139/139/1
f 140/140/1 134/134/1 135/135/1
f 141/141/1 134/134/1 140/140/1
f 142/142/1 151/151/1 141/141/1
f 151/151/1 134/134/1 141/141/1
f 143/143/1 151/151/1 142/142/1
f 143/143/1 150/150/1 151/151/1
f 148/148/1 134/134/1 151/151/1
f 143/143/1 149/149/1 150/150/1
f 144/144/1 149/149/1 143/143/1
f 149/149/1 134/134/1 148/148/1
f 133/133/1 147/147/1 132/132/1
f 149/149/1 133/133/1 134/134/1
f 149/149/1 147/147/1 133/133/1
f 144/144/1 145/145/1 149/149/1
f 145/145/1 147/147/1 149/149/1
f 146/146/1 147/147/1 145/145/1
f 163/163/1 159/159/1 162/162/1
f 159/159/1 161/161/1 162/162/1
f 159/159/1 160/160/1 161/161/1
f 163/163/1 158/158/1 159/159/1
f 163/163/1 157/157/1 158/158/1
f 164/164/1 157/157/1 163/163/1
f 154/154/1 152/152/1 153/153/1
f 154/154/1 155/155/1 152/152/1
f 155/155/1 165/165/1 152/152/1
f 156/156/1 165/165/1 155/155/1
f 157/157/1 165/165/1 156/156/1
f 164/164/1 165/165/1 157/157/1
